# xmcd
#
# Track frame offsets: 
#        150
#        15132
#        27280
#        40167
#        58630
#        73947
#        88560
#        99950
#        113177
#        125055
#        138797
#
# Disc length: 2064 seconds
#
# Revision: 0
# Processed by: cddbd v1.4PL0 Copyright (c) Steve Scherf et al.
# Submitted via: ExactAudioCopy v0.95a3
#
DISCID=88080e0b
DTITLE=Barry Saunders - Long Shadows
DYEAR=1992
DGENRE=Country
TTITLE0=Cry, Cry, Cry
TTITLE1=Guess Things Happen That way
TTITLE2=I Don't Hurt Anymore
TTITLE3=Nobody's Lonsome For Me
TTITLE4=I'll Never Get Out of This World Alive
TTITLE5=Mule Skinner 
TTITLE6=I Can't Get You Out of My Mind
TTITLE7=Sweet Lies
TTITLE8=A Fool Such as I
TTITLE9=Walkin' The Floor
TTITLE10=I'm Movin' On
EXTD=
EXTT0=
EXTT1=
EXTT2=
EXTT3=
EXTT4=
EXTT5=
EXTT6=
EXTT7=
EXTT8=
EXTT9=
EXTT10=
PLAYORDER=
